<svg width="122" height="122" viewBox="0 0 122 122" fill="none" xmlns="http://www.w3.org/2000/svg">
<g filter="url(#filter0_d_7_1676)">
<path d="M89.3333 9H44.3333C44.1322 9.00305 43.9333 9.04317 43.7467 9.11833C38.7104 9.65382 34.0203 11.9351 30.4899 15.5666C26.9595 19.198 24.8115 23.9506 24.4183 29H12.6667C12.2246 29 11.8007 29.1756 11.4882 29.4882C11.1756 29.8007 11 30.2246 11 30.6667V60.6667C11 61.1087 11.1756 61.5326 11.4882 61.8452C11.8007 62.1577 12.2246 62.3333 12.6667 62.3333H23.3033L20.255 68.43C19.8737 69.1923 19.6936 70.0394 19.7319 70.8909C19.7701 71.7423 20.0253 72.5699 20.4734 73.295C20.9214 74.02 21.5473 74.6185 22.2918 75.0336C23.0362 75.4487 23.8743 75.6666 24.7267 75.6667H57.2733C57.9835 75.6668 58.6856 75.5162 59.3333 75.225V107.333C59.3333 107.775 59.5089 108.199 59.8215 108.512C60.134 108.824 60.558 109 61 109H77.6667C78.1087 109 78.5326 108.824 78.8452 108.512C79.1577 108.199 79.3333 107.775 79.3333 107.333V62.3333H109.333C109.775 62.3333 110.199 62.1577 110.512 61.8452C110.824 61.5326 111 61.1087 111 60.6667V30.6667C110.993 24.9223 108.709 19.4152 104.647 15.3533C100.585 11.2915 95.0777 9.00662 89.3333 9ZM46 12.3333C48.4086 12.3298 50.7941 12.8016 53.02 13.7217C55.2459 14.6418 57.2683 15.9921 58.9715 17.6952C60.6746 19.3983 62.0248 21.4208 62.9449 23.6467C63.865 25.8725 64.3368 28.2581 64.3333 30.6667V59H57.6667V30.6667C57.6667 30.2246 57.4911 29.8007 57.1785 29.4882C56.866 29.1756 56.442 29 56 29H27.7517C28.171 24.4482 30.2741 20.2167 33.6494 17.134C37.0246 14.0513 41.4289 12.3394 46 12.3333ZM16.8333 59L29.2467 47.9083L31 49.4817C31.9167 50.3016 33.1034 50.7549 34.3333 50.7549C35.5632 50.7549 36.75 50.3016 37.6667 49.4817L39.4233 47.9083L51.8333 59H16.8333ZM41.93 45.6667L54.3333 34.57V56.76L41.93 45.6667ZM35.45 46.99C35.1444 47.2636 34.7486 47.4149 34.3383 47.4149C33.9281 47.4149 33.5323 47.2636 33.2267 46.99L16.8333 32.3333H51.8333L35.45 46.99ZM26.7417 45.6667L14.3333 56.76V34.57L26.7417 45.6667ZM57.2733 72.3333H24.7267C24.4427 72.3332 24.1634 72.2605 23.9155 72.1221C23.6675 71.9837 23.4589 71.7843 23.3097 71.5427C23.1604 71.3011 23.0754 71.0254 23.0626 70.7417C23.0498 70.458 23.1097 70.1757 23.2367 69.9217L27.03 62.3333H63.3033L58.7633 71.4117C58.625 71.6885 58.4124 71.9213 58.1492 72.0841C57.8861 72.2469 57.5828 72.3332 57.2733 72.3333ZM76 105.667H62.6667V71.06L67.03 62.3333H76V105.667ZM107.667 59H67.6667V30.6667C67.6793 27.0014 66.7557 23.3936 64.9835 20.1853C63.2113 16.9769 60.6492 14.2742 57.54 12.3333H89.3333C94.1939 12.3391 98.8537 14.2725 102.291 17.7094C105.728 21.1463 107.661 25.8061 107.667 30.6667V59Z" fill="#F59331"/>
</g>
<defs>
<filter id="filter0_d_7_1676" x="0" y="0" width="122" height="122" filterUnits="userSpaceOnUse" color-interpolation-filters="sRGB">
<feFlood flood-opacity="0" result="BackgroundImageFix"/>
<feColorMatrix in="SourceAlpha" type="matrix" values="0 0 0 0 0 0 0 0 0 0 0 0 0 0 0 0 0 0 127 0" result="hardAlpha"/>
<feOffset dy="2"/>
<feGaussianBlur stdDeviation="5.5"/>
<feColorMatrix type="matrix" values="0 0 0 0 0.966667 0 0 0 0 0.729244 0 0 0 0 0.0483333 0 0 0 0.21 0"/>
<feBlend mode="normal" in2="BackgroundImageFix" result="effect1_dropShadow_7_1676"/>
<feBlend mode="normal" in="SourceGraphic" in2="effect1_dropShadow_7_1676" result="shape"/>
</filter>
</defs>
</svg>
