<svg width="17" height="17" viewBox="0 0 17 17" fill="none" xmlns="http://www.w3.org/2000/svg">
<path d="M16.32 0H0.68C0.303875 0 0 0.303875 0 0.68V16.32C0 16.6961 0.303875 17 0.68 17H16.32C16.6961 17 17 16.6961 17 16.32V0.68C17 0.303875 16.6961 0 16.32 0ZM14.3565 4.96187H12.9986C11.934 4.96187 11.7279 5.46762 11.7279 6.21137V7.84975H14.2694L13.9379 10.4146H11.7279V17H9.078V10.4167H6.86162V7.84975H9.078V5.9585C9.078 3.76337 10.4189 2.567 12.3781 2.567C13.3174 2.567 14.1228 2.63713 14.3586 2.669V4.96187H14.3565Z" fill="white"/>
</svg>
