<svg width="30" height="30" viewBox="0 0 30 30" fill="none" xmlns="http://www.w3.org/2000/svg">
<rect width="30" height="30" fill="#DD4B39"/>
<path d="M21.5452 12.8812V14.3366H23.0005V15.7921H21.5452V17.2475H20.0897V15.7921H18.6343V14.3366H20.0897V12.8812H21.5452Z" fill="white"/>
<path d="M8.44548 18.7027C6.50491 16.7621 6.50491 13.3661 8.5263 11.4256C9.98175 9.97019 12.084 9.64681 13.9437 10.3745L14.6714 10.7788L15.48 11.3448L14.1863 12.6385L13.7012 12.3151C12.5692 11.5875 10.952 11.7491 9.90093 12.8003C8.68804 14.0132 8.60722 16.1963 9.90093 17.49C11.1138 18.7837 13.297 18.7837 14.4289 17.49C14.7523 17.1666 15.0758 16.6814 15.1566 16.1963V16.0346H12.2458V14.4175H16.8546L16.9354 14.8218V15.9537C16.8546 17.0049 16.4503 18.056 15.7226 18.7837C13.7821 20.6433 10.3861 20.6433 8.44548 18.7027Z" fill="white"/>
</svg>
