<svg width="15" height="20" viewBox="0 0 15 20" fill="none" xmlns="http://www.w3.org/2000/svg">
<path d="M7.24325 0C3.2493 0 0 3.2493 0 7.24321C0 12.1998 6.482 19.4763 6.75798 19.7837C7.0172 20.0724 7.46977 20.0719 7.72853 19.7837C8.0045 19.4763 14.4865 12.1998 14.4865 7.24321C14.4864 3.2493 11.2372 0 7.24325 0Z" fill="#F59331"/>
<path d="M7.24334 10.8875C5.23389 10.8875 3.59912 9.25267 3.59912 7.24321C3.59912 5.23376 5.23393 3.59899 7.24334 3.59899C9.25276 3.59899 10.8875 5.2338 10.8875 7.24325C10.8875 9.25271 9.25276 10.8875 7.24334 10.8875Z" fill="white"/>
</svg>
