<?xml version="1.0" standalone="no"?>
<!DOCTYPE svg PUBLIC "-//W3C//DTD SVG 20010904//EN"
 "http://www.w3.org/TR/2001/REC-SVG-20010904/DTD/svg10.dtd">
<svg version="1.0" xmlns="http://www.w3.org/2000/svg"
 width="1024.000000pt" height="1024.000000pt" viewBox="0 0 1024.000000 1024.000000"
 preserveAspectRatio="xMidYMid meet">
<metadata>
Created by potrace 1.16, written by Peter Selinger 2001-2019
</metadata>
<g transform="translate(0.000000,1024.000000) scale(0.100000,-0.100000)"
fill="#000000" stroke="none">
<path d="M4915 8165 c-5 -2 -55 -7 -110 -11 -88 -7 -95 -9 -55 -15 34 -5 28
-6 -23 -3 -153 7 -563 -103 -825 -222 -97 -44 -252 -123 -272 -138 -8 -6 -35
-22 -60 -35 -57 -30 -71 -41 -65 -51 2 -4 -5 -16 -18 -26 l-22 -19 19 23 c21
24 6 31 -18 7 -8 -8 -17 -15 -21 -15 -17 0 -134 -93 -128 -102 3 -6 1 -8 -5
-5 -5 4 -33 -11 -61 -33 -47 -38 -68 -61 -38 -44 7 4 8 3 4 -2 -5 -5 -15 -9
-22 -9 -21 0 -176 -145 -169 -157 4 -6 3 -8 -3 -5 -13 8 -96 -77 -86 -88 5 -4
3 -6 -2 -2 -15 8 -78 -59 -69 -74 4 -7 3 -9 -3 -6 -5 3 -26 -14 -46 -38 -37
-44 -47 -62 -25 -49 7 4 8 3 4 -5 -4 -6 -11 -9 -16 -6 -9 6 -46 -39 -109 -133
-34 -51 -40 -66 -31 -78 9 -10 9 -14 1 -14 -6 0 -11 5 -11 11 0 8 -5 7 -16 -2
-8 -7 -13 -21 -10 -32 2 -10 2 -16 -1 -13 -8 7 -33 -13 -33 -26 0 -6 8 -4 18
3 15 13 16 12 3 -3 -7 -10 -17 -16 -21 -13 -11 7 -52 -64 -44 -77 4 -6 3 -8
-3 -5 -16 10 -63 -93 -63 -140 0 -65 55 -120 139 -138 24 -5 32 -4 26 5 -5 8
2 10 27 5 25 -5 41 -1 68 17 34 23 54 50 160 215 29 45 61 92 71 105 11 12 17
28 14 35 -2 8 -1 12 4 8 5 -3 20 9 32 27 55 79 178 215 295 326 l126 120 -24
22 c-22 21 -22 22 -1 11 12 -6 23 -16 26 -23 3 -10 7 -10 20 1 9 7 14 18 10
24 -3 6 -1 7 5 3 6 -4 48 21 93 54 45 34 95 68 111 76 17 9 26 20 22 26 -5 7
-3 8 5 4 7 -5 20 -2 29 6 9 8 46 29 82 48 89 46 117 64 118 73 0 5 4 12 8 15
4 4 4 1 0 -5 -11 -20 13 -15 45 8 16 11 29 18 29 15 0 -4 33 9 135 55 23 9 53
21 68 24 15 4 27 10 27 14 0 4 6 8 13 8 6 0 59 14 117 31 251 74 384 96 651
108 267 12 582 -27 839 -102 69 -20 131 -37 138 -37 6 0 12 -4 12 -7 0 -4 14
-10 32 -14 17 -3 87 -31 156 -61 68 -30 129 -52 135 -48 5 3 7 2 4 -4 -3 -5
15 -20 41 -34 26 -13 68 -36 93 -52 26 -15 53 -25 61 -22 8 3 21 -2 29 -12 13
-16 12 -17 -4 -4 -9 8 -20 12 -22 9 -8 -8 96 -69 106 -62 5 3 8 1 7 -4 -4 -13
181 -151 196 -148 6 2 7 1 3 -2 -10 -5 203 -208 216 -204 4 1 6 -1 3 -6 -3 -5
11 -24 31 -43 21 -19 31 -25 23 -14 -14 18 -14 19 2 6 10 -7 15 -17 12 -22 -3
-5 17 -35 43 -67 27 -31 62 -74 77 -94 17 -23 33 -35 42 -31 16 6 44 -14 44
-31 0 -6 -5 -3 -11 7 -5 9 -17 17 -24 17 -16 0 -21 -16 -7 -22 4 -1 15 -16 24
-33 10 -16 23 -29 29 -27 6 2 9 -3 6 -11 -3 -7 4 -24 15 -38 15 -19 17 -20 9
-3 -7 15 -7 21 3 21 8 0 12 -10 10 -25 -2 -16 13 -51 37 -91 21 -35 39 -69 39
-73 0 -5 5 -6 12 -2 6 4 8 3 4 -4 -9 -14 65 -163 77 -155 6 4 7 1 3 -6 -5 -7
3 -29 17 -50 29 -44 96 -81 146 -81 56 0 119 47 141 104 12 34 13 99 1 92 -5
-4 -7 2 -4 13 6 24 -76 203 -90 194 -6 -3 -7 -1 -3 6 8 13 -65 149 -138 256
-22 33 -48 73 -57 89 -16 31 -39 46 -39 26 0 -6 5 -8 12 -4 8 5 9 2 5 -9 -4
-11 -1 -17 7 -17 20 0 15 -27 -8 -49 l-21 -20 -1 32 c-1 18 1 24 3 15 2 -10 9
-18 14 -18 12 0 11 6 -6 40 -8 16 -12 35 -9 43 7 19 -47 98 -63 92 -7 -2 -15
0 -18 6 -4 5 -10 7 -14 5 -3 -3 -7 4 -7 15 0 19 1 18 18 -3 10 -13 18 -18 18
-13 0 33 -297 340 -439 453 -51 41 -67 49 -82 42 -12 -7 -20 -6 -25 2 -4 6 -3
8 4 4 6 -3 14 -1 17 5 11 17 -1 22 -25 9 -18 -10 -19 -14 -8 -28 11 -15 11
-15 -3 -5 -16 13 -19 47 -4 60 4 5 5 2 1 -4 -5 -9 -1 -13 11 -13 15 1 15 4 -6
21 -13 11 -30 18 -37 15 -7 -3 -11 0 -8 7 2 7 -46 44 -117 89 -209 133 -594
311 -676 312 -18 0 -28 3 -23 6 12 8 -29 22 -155 55 -55 14 -108 24 -118 21
-10 -2 -14 0 -11 6 5 7 -6 9 -32 4 -28 -5 -35 -4 -24 3 15 11 4 13 -72 15 -13
1 -26 4 -29 9 -3 4 -37 8 -76 10 -39 1 -69 5 -67 8 8 14 -503 27 -541 14z"/>
<path d="M5000 7304 c-19 -2 -80 -9 -135 -15 -179 -19 -326 -54 -523 -125 -53
-19 -70 -29 -60 -36 9 -7 7 -8 -8 -4 -20 6 -168 -62 -264 -121 -25 -16 -62
-39 -84 -52 l-39 -25 21 -17 c18 -14 19 -18 6 -23 -8 -3 -13 -2 -10 3 3 5 -1
14 -9 21 -13 11 -26 5 -78 -36 -97 -75 -152 -126 -149 -136 1 -5 -2 -7 -7 -4
-17 11 -159 -139 -181 -189 -27 -64 -27 -196 1 -179 5 3 6 -3 2 -12 -5 -13 -2
-16 9 -12 10 4 15 1 14 -10 -3 -46 119 -57 180 -16 44 29 85 75 77 87 -2 4 0
6 5 5 11 -4 135 112 128 119 -3 3 -12 -2 -21 -11 -24 -23 -32 -20 -10 4 10 11
25 18 34 15 10 -3 48 21 96 59 45 35 91 68 103 75 12 7 20 16 17 21 -4 6 1 7
11 3 13 -5 15 -3 9 7 -5 9 -4 11 4 6 6 -4 17 -3 24 2 27 23 228 120 302 147
44 16 86 36 93 45 9 10 11 11 6 1 -5 -10 -3 -13 9 -8 41 16 242 57 322 67 119
13 332 13 453 -1 53 -7 113 -12 134 -13 20 -1 34 -4 32 -7 -1 -3 32 -14 74
-24 42 -9 107 -28 143 -41 37 -13 73 -23 80 -21 8 2 11 2 6 -1 -15 -8 155 -83
177 -77 14 4 17 3 8 -3 -10 -6 3 -19 48 -45 33 -20 66 -34 74 -31 8 3 17 1 21
-5 4 -7 -1 -9 -12 -5 -16 4 -16 4 1 -8 10 -7 31 -23 46 -36 27 -21 67 -21 54
0 -3 5 3 4 15 -3 23 -15 9 -31 -18 -21 -14 5 -14 4 -2 -12 8 -9 20 -15 27 -12
8 3 13 2 11 -3 -3 -13 219 -221 228 -213 5 4 5 2 1 -5 -3 -6 -2 -14 3 -18 5
-3 14 3 20 12 6 10 11 13 11 8 0 -6 -5 -16 -12 -23 -9 -9 -7 -16 7 -32 10 -11
22 -17 27 -14 4 3 7 2 6 -3 -4 -13 53 -83 63 -77 5 3 6 -1 4 -8 -7 -16 42 -61
56 -53 5 4 8 1 7 -6 -4 -16 75 -32 118 -24 17 3 43 15 56 28 34 30 65 88 38
72 -5 -3 -10 -1 -10 4 0 6 7 11 15 11 21 0 20 71 -1 113 -18 34 -103 148 -156
209 -22 25 -37 35 -46 29 -7 -4 -12 -14 -10 -21 2 -7 -3 -14 -10 -15 -7 -2 -8
-1 -2 2 6 2 -1 14 -15 25 -14 11 -25 25 -25 31 0 7 4 6 10 -3 9 -13 11 -13 21
0 9 13 10 12 5 -3 -4 -12 -2 -17 6 -15 30 10 9 38 -107 148 -107 100 -216 183
-352 264 -115 69 -266 139 -277 129 -3 -4 -6 -2 -6 4 0 12 -90 46 -98 38 -3
-2 3 -7 12 -10 53 -17 51 -16 36 -25 -21 -13 -38 -12 -20 1 12 9 11 10 -8 6
-12 -3 -20 -1 -16 4 3 5 0 9 -5 9 -6 0 -11 7 -11 16 0 13 -6 15 -27 10 -21 -5
-24 -4 -13 4 8 5 12 10 8 10 -4 0 -59 13 -122 29 -63 17 -166 37 -228 45 -115
15 -384 27 -448 20z"/>
<path d="M2407 5580 c-8 -30 -7 -724 1 -855 l7 -110 90 0 90 0 5 160 5 160
165 6 c195 6 241 21 314 99 55 59 76 124 76 235 0 147 -53 236 -172 291 l-63
29 -256 3 c-253 3 -256 3 -262 -18z m495 -191 c55 -40 74 -127 42 -195 -27
-57 -60 -68 -208 -68 l-129 -1 -1 143 -1 142 133 0 c121 0 137 -2 164 -21z"/>
<path d="M3600 5580 c-13 -24 -121 -299 -267 -675 -96 -248 -102 -271 -86
-282 22 -17 154 -17 176 0 10 7 35 55 55 107 l38 95 189 0 188 0 34 -89 c18
-50 39 -96 45 -103 12 -15 193 -19 203 -4 5 9 -336 874 -371 943 -14 27 -16
28 -104 28 -79 0 -91 -2 -100 -20z m160 -424 c28 -71 50 -130 48 -131 -5 -5
-218 -11 -218 -7 0 4 80 225 95 265 4 10 11 15 16 10 4 -4 30 -66 59 -137z"/>
<path d="M4372 5113 l3 -488 95 0 95 0 3 173 2 172 83 0 82 0 87 -174 87 -173
93 -5 c103 -5 118 -3 118 19 0 9 -38 89 -85 179 -47 90 -85 168 -85 174 0 6
16 18 35 25 53 23 100 70 126 127 20 43 24 69 24 143 -1 103 -23 166 -78 223
-75 78 -143 92 -454 92 l-233 0 2 -487z m498 282 c76 -39 82 -183 10 -220 -23
-12 -140 -19 -282 -16 l-28 1 0 125 0 125 135 0 c102 0 143 -4 165 -15z"/>
<path d="M5356 5584 c-3 -9 -6 -224 -6 -479 0 -399 2 -466 15 -479 15 -15 104
-21 158 -10 l27 6 0 489 0 489 -94 0 c-76 0 -95 -3 -100 -16z"/>
<path d="M5876 5573 c-85 -99 -244 -305 -263 -342 -28 -53 -29 -102 -4 -156
10 -22 80 -133 155 -247 l137 -208 121 0 c110 0 120 2 116 18 -3 9 -80 126
-171 258 -92 133 -167 246 -167 252 0 6 23 38 51 71 106 127 279 355 279 368
0 10 -26 13 -115 13 -113 0 -115 0 -139 -27z"/>
<path d="M6387 5593 c-4 -3 -7 -224 -7 -490 l0 -483 333 2 332 3 3 79 c2 57
-1 82 -10 87 -7 5 -113 9 -235 9 l-223 0 -1 373 c-1 204 -1 376 0 381 1 4 -1
17 -4 27 -6 17 -17 19 -94 19 -48 0 -91 -3 -94 -7z"/>
<path d="M7010 5586 c0 -8 74 -148 165 -311 l165 -296 0 -179 c0 -137 3 -180
13 -181 68 -4 173 4 179 14 4 7 8 88 8 181 l0 168 172 300 c113 197 168 302
161 309 -5 5 -54 9 -113 7 l-102 -3 -43 -75 c-23 -41 -69 -126 -102 -189 -32
-62 -63 -113 -68 -113 -4 0 -51 85 -104 189 l-97 188 -117 3 c-96 2 -117 0
-117 -12z"/>
<path d="M6699 4070 c-34 -18 -149 -138 -149 -154 0 -4 -14 -19 -30 -33 -17
-13 -27 -29 -24 -34 3 -5 0 -8 -8 -7 -7 2 -12 -3 -10 -10 1 -8 -1 -11 -6 -8
-12 7 -64 -48 -55 -58 5 -4 1 -6 -7 -4 -8 2 -14 -3 -12 -10 1 -8 -1 -11 -6 -8
-5 3 -19 -5 -31 -18 -17 -18 -19 -26 -10 -31 7 -5 10 -4 6 2 -4 6 1 10 11 9
10 0 16 5 14 14 -2 8 0 11 4 7 10 -10 15 -38 5 -33 -4 3 -13 1 -21 -4 -8 -5
-21 -5 -30 0 -12 6 -26 0 -53 -25 -20 -19 -37 -32 -37 -29 0 3 -17 -7 -37 -23
-62 -48 -186 -121 -282 -167 -50 -23 -88 -46 -83 -51 4 -4 2 -5 -4 -2 -7 4
-56 -9 -110 -29 -309 -112 -672 -134 -1018 -60 -46 9 -77 11 -93 5 -14 -5 -30
-9 -36 -8 -7 0 1 5 17 11 28 10 26 11 -50 35 -43 13 -93 31 -111 39 -17 8 -35
13 -40 12 -4 -1 -19 5 -33 13 -14 9 -73 42 -132 73 -129 68 -268 175 -439 336
-98 92 -129 116 -138 107 -9 -9 -11 -8 -6 4 4 11 -7 28 -37 54 -63 54 -93 67
-169 72 -66 4 -69 3 -104 -29 -66 -60 -57 -156 24 -245 42 -47 58 -55 40 -20
-8 16 -8 19 0 11 6 -6 14 -21 16 -34 8 -40 368 -380 402 -380 4 0 1 5 -7 11
-13 9 -13 10 0 6 8 -2 15 -9 15 -15 0 -36 341 -239 381 -226 13 4 15 3 7 -3
-9 -7 -2 -14 26 -27 154 -67 278 -105 332 -100 29 3 30 2 9 -4 -20 -7 0 -13
90 -30 203 -37 300 -45 508 -39 220 6 293 15 456 58 30 8 36 13 25 21 -10 7
-8 8 8 3 25 -7 95 4 89 14 -2 3 12 6 32 7 20 0 38 6 40 12 2 7 7 10 12 7 8 -5
48 10 127 46 24 10 45 19 47 19 2 0 24 12 47 26 24 14 36 23 26 20 -11 -3 -16
-2 -12 5 4 5 15 7 26 4 33 -11 232 117 399 254 115 95 330 319 330 343 0 5 -7
11 -15 14 -12 5 -13 10 -4 20 6 7 7 19 3 26 -6 10 -3 9 9 -1 18 -14 24 -36 7
-26 -5 3 -10 2 -10 -4 0 -5 5 -13 11 -16 10 -7 38 22 39 40 0 6 -4 4 -9 -3 -7
-11 -9 -10 -14 3 -4 9 -3 14 1 11 33 -20 55 102 29 165 -11 27 -14 30 -20 16
-4 -11 -3 -16 3 -12 10 6 12 -2 14 -57 l2 -27 -32 24 c-18 14 -37 25 -43 25
-18 0 -12 26 11 46 21 19 21 19 15 -1 -7 -20 -7 -20 8 -1 20 27 19 33 -10 52
-38 25 -95 27 -136 4z"/>
<path d="M7675 4076 c-46 -21 -89 -62 -80 -76 5 -8 4 -11 -3 -6 -6 4 -18 -6
-27 -23 -14 -28 -14 -30 5 -26 22 4 24 -8 9 -40 -9 -19 -9 -18 -5 2 5 25 -4
35 -21 25 -6 -4 -45 -67 -88 -141 l-77 -134 23 -31 22 -31 -23 20 c-18 15 -22
16 -18 4 4 -9 1 -16 -7 -16 -10 0 -11 5 -4 18 16 30 10 35 -11 9 -11 -14 -20
-31 -20 -37 0 -7 -5 -13 -11 -13 -6 0 -8 -7 -5 -16 3 -8 2 -12 -4 -9 -5 3 -14
-4 -21 -16 -21 -40 -119 -166 -183 -236 -27 -31 -36 -47 -29 -55 14 -17 13
-52 0 -39 -7 7 -17 6 -31 -1 -19 -10 -19 -8 3 16 49 52 14 24 -79 -65 -52 -50
-130 -120 -173 -156 -42 -36 -75 -69 -72 -74 4 -5 0 -6 -8 -3 -7 2 -25 -5 -38
-16 l-24 -21 28 17 c15 9 27 12 27 6 0 -10 -28 -22 -63 -26 -9 -2 -35 -17 -56
-34 -22 -18 -42 -32 -44 -32 -3 0 -34 -18 -69 -39 -97 -59 -300 -159 -392
-192 -44 -17 -90 -38 -100 -47 -11 -9 -16 -11 -12 -5 4 8 2 11 -6 9 -7 -3 -42
-14 -78 -25 -76 -25 -322 -81 -352 -81 -11 0 -27 -8 -35 -17 -8 -10 -12 -12
-8 -5 4 8 -4 12 -29 12 -20 0 -36 -3 -36 -7 0 -13 -487 -16 -600 -3 -293 32
-533 91 -797 198 -29 12 -53 17 -53 12 0 -6 -7 -10 -15 -10 -18 0 -20 20 -2
20 6 1 -19 16 -57 35 -37 19 -73 32 -79 28 -6 -3 -7 -1 -3 5 4 7 -15 23 -51
41 -32 17 -71 39 -88 50 -21 14 -33 17 -42 10 -13 -11 -39 -2 -45 16 -2 6 -6
9 -10 8 -5 -2 -8 2 -8 7 0 13 11 12 32 -4 10 -7 15 -16 11 -19 -3 -4 -1 -7 5
-7 23 0 11 19 -30 49 -23 17 -48 29 -56 26 -7 -2 -10 -1 -7 5 3 5 -5 16 -19
25 -18 12 -30 14 -44 6 -14 -8 -24 -6 -38 4 -18 15 -18 15 1 8 18 -5 17 -3 -5
23 l-25 29 25 -20 c14 -11 28 -24 32 -30 4 -5 10 -6 14 -2 4 4 5 8 3 10 -24
16 -135 111 -175 149 -27 27 -63 51 -79 54 -24 4 -26 3 -16 -10 10 -12 9 -14
-8 -9 -17 4 -18 8 -8 24 8 13 15 15 24 7 27 -22 11 10 -19 38 -17 16 -28 24
-25 19 3 -6 -3 -12 -14 -12 -11 -1 -23 5 -26 13 -3 8 -10 14 -15 14 -6 0 -7
-8 -3 -17 5 -14 4 -15 -6 -6 -9 9 -9 16 -1 25 13 16 5 32 -21 41 -10 4 -15 12
-12 17 7 12 55 -33 55 -51 0 -6 5 -7 12 -3 8 5 9 2 5 -9 -3 -10 -2 -17 3 -17
21 0 7 25 -49 89 -55 62 -196 252 -204 275 -3 6 -8 7 -13 2 -5 -5 -4 -11 3
-13 7 -2 9 -11 6 -20 -4 -10 -2 -14 5 -9 6 3 14 1 18 -5 4 -8 3 -9 -5 -5 -6 4
-14 0 -17 -8 -3 -9 -12 -16 -20 -16 -16 0 -19 36 -4 45 6 4 7 12 3 18 -4 7 -6
20 -5 29 4 22 -57 130 -69 122 -5 -3 -9 -10 -9 -15 0 -6 5 -7 10 -4 18 11 21
-20 5 -60 -15 -39 -15 -39 -10 -7 2 18 1 31 -4 28 -11 -7 -9 44 2 61 4 7 3 22
-3 33 -15 27 -18 25 -12 -7 2 -16 2 -26 -1 -23 -3 3 -8 21 -10 40 -6 48 -91
207 -135 252 -33 35 -54 47 -88 52 -7 1 -17 5 -20 9 -4 4 -27 7 -52 7 -37 0
-50 -6 -77 -33 -44 -44 -55 -108 -30 -185 18 -59 119 -245 127 -236 3 3 8 -2
12 -11 4 -11 2 -14 -7 -9 -9 6 -9 4 -1 -7 6 -8 26 -41 44 -74 41 -74 158 -253
173 -262 6 -3 7 -1 3 5 -11 18 0 14 15 -5 10 -11 10 -14 2 -9 -24 14 -13 -6
39 -73 87 -112 189 -221 201 -214 5 3 7 2 4 -4 -8 -13 37 -56 48 -46 4 5 5 3
2 -4 -4 -6 17 -33 50 -63 42 -39 58 -48 65 -38 6 9 8 7 6 -7 -2 -12 2 -19 10
-17 8 1 11 -1 8 -6 -3 -5 12 -23 34 -41 40 -32 56 -39 44 -20 -12 19 29 -7 51
-33 20 -23 20 -23 -8 1 -15 14 -29 22 -32 19 -6 -6 149 -119 248 -182 31 -20
63 -34 69 -30 7 4 8 3 4 -4 -8 -14 30 -36 46 -26 6 4 8 3 5 -3 -8 -13 20 -26
35 -16 7 3 8 1 4 -5 -18 -29 486 -238 548 -228 20 4 24 3 13 -2 -14 -6 1 -13
60 -30 489 -138 1026 -147 1533 -26 176 42 449 137 420 146 -8 3 -5 4 6 2 22
-4 176 62 182 77 2 5 11 9 20 9 25 1 93 45 84 55 -4 4 -2 5 5 2 16 -10 44 3
36 16 -3 6 -1 7 5 3 15 -9 55 18 44 29 -4 5 -2 5 5 1 14 -8 85 32 78 44 -3 5
0 12 6 16 8 5 9 3 4 -6 -5 -8 -3 -11 6 -8 8 3 13 14 11 24 -2 15 -1 16 7 5 7
-11 15 -10 42 10 89 61 164 122 162 130 -2 4 3 6 10 4 13 -5 73 43 64 52 -3 3
-16 -4 -28 -16 -13 -12 -28 -21 -33 -21 -6 0 5 14 24 29 22 19 37 26 42 18 4
-6 29 9 65 40 74 65 273 267 273 278 0 4 -8 1 -17 -6 -16 -13 -17 -12 -4 3 7
10 17 16 21 13 11 -7 102 104 95 115 -4 6 -2 9 3 8 15 -5 62 58 52 68 -11 11
-2 54 11 54 5 0 9 9 9 20 0 11 3 20 8 20 4 0 7 -11 7 -24 0 -13 -4 -24 -10
-23 -5 1 -9 -6 -7 -17 2 -11 -1 -15 -7 -11 -6 3 -11 1 -11 -5 0 -20 23 -5 39
26 9 16 27 45 41 64 14 19 30 42 35 52 6 9 33 57 61 105 54 93 96 173 138 262
29 62 34 133 12 184 -14 34 -69 87 -89 87 -7 0 -3 -6 8 -12 40 -23 72 -66 70
-95 -4 -66 -2 -63 -50 -63 l-45 0 0 39 c0 36 -3 40 -27 43 -16 2 -27 8 -26 13
4 17 49 17 66 0 10 -9 18 -11 22 -5 8 14 26 13 23 -1 -2 -6 3 -14 10 -16 11
-4 12 -1 3 13 -20 35 -41 58 -47 52 -3 -4 -20 -1 -37 5 l-32 11 25 7 25 7 -25
1 c-14 0 -38 -6 -55 -13z"/>
</g>
</svg>
