<svg width="67" height="48" viewBox="0 0 67 48" fill="none" xmlns="http://www.w3.org/2000/svg">
<path d="M24.0002 35.7637L9.09255 20.856L9.0923 20.8558C7.35405 19.1183 4.54228 19.1179 2.80414 20.8558C1.06538 22.5937 1.06529 25.4066 2.80388 27.1446C2.80396 27.1447 2.80405 27.1448 2.80414 27.1449L20.8559 45.1972L21.9165 44.1365L20.8559 45.1972C21.7226 46.0639 22.8633 46.5 24.0002 46.5C25.1368 46.5 26.2781 46.0641 27.1451 45.1972L63.2496 9.09268L63.2498 9.09244C64.9875 7.35397 64.9875 4.5422 63.2498 2.80373L63.2493 2.80324C61.511 1.06572 58.699 1.06537 56.9609 2.80348C56.9609 2.80348 56.9609 2.80348 56.9609 2.80349L24.0002 35.7637Z" fill="#F59331" stroke="white" stroke-width="3"/>
</svg>
